<svg width="36px" height="36px" viewBox="0 0 0.72 0.72" xmlns="http://www.w3.org/2000/svg">
  <path fill="#000000" d="M0.405 0a0.045 0.045 0 1 1 0 0.09v0.003c0.054 0.008 0.103 0.029 0.144 0.06 0.001 -0.002 0.003 -0.003 0.004 -0.005l0.045 -0.045a0.045 0.045 0 1 1 0.064 0.064l-0.045 0.045c-0.002 0.002 -0.003 0.003 -0.005 0.004A0.315 0.315 0 1 1 0.315 0.093V0.09a0.045 0.045 0 0 1 0 -0.09h0.09ZM0.36 0.18a0.225 0.225 0 1 0 0 0.45A0.225 0.225 0 0 0 0.36 0.18Zm0 0.045a0.045 0.045 0 0 1 0.045 0.045v0.116l0.077 0.077a0.045 0.045 0 0 1 -0.064 0.064L0.315 0.424V0.27a0.045 0.045 0 0 1 0.045 -0.045Z"/>
</svg>
